<svg xmlns="http://www.w3.org/2000/svg" viewBox="0 0 600 600" width="600" height="600">
<rect width="600" height="600" fill="#e9e2d3"/>
<rect x="72.0" y="48.0" width="456.0" height="504.0" rx="48.0" fill="#c79a6b"/>
<g fill="#5a3a22" opacity="0.85">
<rect x="96.0" y="130.0" width="408.00000000000006" height="2" opacity="0.5"/>
<g transform="translate(480.0,118.0) rotate(0) scale(0.55)"><path d="M0,-7 L0,7 L13,0 Z"/><path d="M10,-1.3 L32,-0.5 L32,0.5 L10,1.3 Z"/></g>
<g transform="translate(462.0,118.0) rotate(0) scale(0.55)"><path d="M0,-7 L0,7 L13,0 Z"/><path d="M10,-1.3 L32,-0.5 L32,0.5 L10,1.3 Z"/></g>
<g transform="translate(448.0,118.0) rotate(0) scale(0.55)"><path d="M0,-7 L0,7 L13,0 Z"/><path d="M10,-1.3 L32,-0.5 L32,0.5 L10,1.3 Z"/></g>
<g transform="translate(434.0,118.0) rotate(0) scale(0.55)"><path d="M0,-7 L0,7 L13,0 Z"/><path d="M10,-1.3 L32,-0.5 L32,0.5 L10,1.3 Z"/></g>
<g transform="translate(420.0,120.0) rotate(45) scale(0.4)"><path d="M0,-7 L0,7 L13,0 Z"/><path d="M10,-1.3 L32,-0.5 L32,0.5 L10,1.3 Z"/></g>
<g transform="translate(402.0,118.0) rotate(0) scale(0.55)"><path d="M0,-7 L0,7 L13,0 Z"/><path d="M10,-1.3 L32,-0.5 L32,0.5 L10,1.3 Z"/></g>
<g transform="translate(372.0,118.0) rotate(0) scale(0.55)"><path d="M0,-7 L0,7 L13,0 Z"/><path d="M10,-1.3 L32,-0.5 L32,0.5 L10,1.3 Z"/></g>
<g transform="translate(354.0,118.0) rotate(0) scale(0.55)"><path d="M0,-7 L0,7 L13,0 Z"/><path d="M10,-1.3 L32,-0.5 L32,0.5 L10,1.3 Z"/></g>
<g transform="translate(324.0,118.0) rotate(0) scale(0.55)"><path d="M0,-7 L0,7 L13,0 Z"/><path d="M10,-1.3 L32,-0.5 L32,0.5 L10,1.3 Z"/></g>
<g transform="translate(310.0,120.0) rotate(45) scale(0.4)"><path d="M0,-7 L0,7 L13,0 Z"/><path d="M10,-1.3 L32,-0.5 L32,0.5 L10,1.3 Z"/></g>
<g transform="translate(296.0,110.0) rotate(90) scale(0.45)"><path d="M0,-7 L0,7 L13,0 Z"/><path d="M10,-1.3 L32,-0.5 L32,0.5 L10,1.3 Z"/></g>
<g transform="translate(266.0,118.0) rotate(0) scale(0.55)"><path d="M0,-7 L0,7 L13,0 Z"/><path d="M10,-1.3 L32,-0.5 L32,0.5 L10,1.3 Z"/></g>
<g transform="translate(248.0,118.0) rotate(0) scale(0.55)"><path d="M0,-7 L0,7 L13,0 Z"/><path d="M10,-1.3 L32,-0.5 L32,0.5 L10,1.3 Z"/></g>
<g transform="translate(230.0,118.0) rotate(0) scale(0.55)"><path d="M0,-7 L0,7 L13,0 Z"/><path d="M10,-1.3 L32,-0.5 L32,0.5 L10,1.3 Z"/></g>
<g transform="translate(212.0,118.0) rotate(0) scale(0.55)"><path d="M0,-7 L0,7 L13,0 Z"/><path d="M10,-1.3 L32,-0.5 L32,0.5 L10,1.3 Z"/></g>
<g transform="translate(190.0,110.0) rotate(90) scale(0.45)"><path d="M0,-7 L0,7 L13,0 Z"/><path d="M10,-1.3 L32,-0.5 L32,0.5 L10,1.3 Z"/></g>
<g transform="translate(172.0,118.0) rotate(0) scale(0.55)"><path d="M0,-7 L0,7 L13,0 Z"/><path d="M10,-1.3 L32,-0.5 L32,0.5 L10,1.3 Z"/></g>
<g transform="translate(154.0,118.0) rotate(0) scale(0.55)"><path d="M0,-7 L0,7 L13,0 Z"/><path d="M10,-1.3 L32,-0.5 L32,0.5 L10,1.3 Z"/></g>
<g transform="translate(140.0,110.0) rotate(90) scale(0.45)"><path d="M0,-7 L0,7 L13,0 Z"/><path d="M10,-1.3 L32,-0.5 L32,0.5 L10,1.3 Z"/></g>
<g transform="translate(122.0,118.0) rotate(0) scale(0.55)"><path d="M0,-7 L0,7 L13,0 Z"/><path d="M10,-1.3 L32,-0.5 L32,0.5 L10,1.3 Z"/></g>
<rect x="96.0" y="167.0" width="408.00000000000006" height="2" opacity="0.5"/>
<g transform="translate(480.0,147.0) rotate(90) scale(0.45)"><path d="M0,-7 L0,7 L13,0 Z"/><path d="M10,-1.3 L32,-0.5 L32,0.5 L10,1.3 Z"/></g>
<g transform="translate(450.0,147.0) rotate(90) scale(0.45)"><path d="M0,-7 L0,7 L13,0 Z"/><path d="M10,-1.3 L32,-0.5 L32,0.5 L10,1.3 Z"/></g>
<g transform="translate(420.0,155.0) rotate(0) scale(0.55)"><path d="M0,-7 L0,7 L13,0 Z"/><path d="M10,-1.3 L32,-0.5 L32,0.5 L10,1.3 Z"/></g>
<g transform="translate(402.0,147.0) rotate(90) scale(0.45)"><path d="M0,-7 L0,7 L13,0 Z"/><path d="M10,-1.3 L32,-0.5 L32,0.5 L10,1.3 Z"/></g>
<g transform="translate(384.0,155.0) rotate(0) scale(0.55)"><path d="M0,-7 L0,7 L13,0 Z"/><path d="M10,-1.3 L32,-0.5 L32,0.5 L10,1.3 Z"/></g>
<g transform="translate(362.0,155.0) rotate(0) scale(0.55)"><path d="M0,-7 L0,7 L13,0 Z"/><path d="M10,-1.3 L32,-0.5 L32,0.5 L10,1.3 Z"/></g>
<g transform="translate(340.0,147.0) rotate(90) scale(0.45)"><path d="M0,-7 L0,7 L13,0 Z"/><path d="M10,-1.3 L32,-0.5 L32,0.5 L10,1.3 Z"/></g>
<g transform="translate(318.0,147.0) rotate(90) scale(0.45)"><path d="M0,-7 L0,7 L13,0 Z"/><path d="M10,-1.3 L32,-0.5 L32,0.5 L10,1.3 Z"/></g>
<g transform="translate(304.0,155.0) rotate(0) scale(0.55)"><path d="M0,-7 L0,7 L13,0 Z"/><path d="M10,-1.3 L32,-0.5 L32,0.5 L10,1.3 Z"/></g>
<g transform="translate(274.0,155.0) rotate(0) scale(0.55)"><path d="M0,-7 L0,7 L13,0 Z"/><path d="M10,-1.3 L32,-0.5 L32,0.5 L10,1.3 Z"/></g>
<g transform="translate(252.0,155.0) rotate(0) scale(0.55)"><path d="M0,-7 L0,7 L13,0 Z"/><path d="M10,-1.3 L32,-0.5 L32,0.5 L10,1.3 Z"/></g>
<g transform="translate(222.0,155.0) rotate(0) scale(0.55)"><path d="M0,-7 L0,7 L13,0 Z"/><path d="M10,-1.3 L32,-0.5 L32,0.5 L10,1.3 Z"/></g>
<g transform="translate(208.0,147.0) rotate(90) scale(0.45)"><path d="M0,-7 L0,7 L13,0 Z"/><path d="M10,-1.3 L32,-0.5 L32,0.5 L10,1.3 Z"/></g>
<g transform="translate(186.0,155.0) rotate(0) scale(0.55)"><path d="M0,-7 L0,7 L13,0 Z"/><path d="M10,-1.3 L32,-0.5 L32,0.5 L10,1.3 Z"/></g>
<g transform="translate(164.0,147.0) rotate(90) scale(0.45)"><path d="M0,-7 L0,7 L13,0 Z"/><path d="M10,-1.3 L32,-0.5 L32,0.5 L10,1.3 Z"/></g>
<g transform="translate(134.0,155.0) rotate(0) scale(0.55)"><path d="M0,-7 L0,7 L13,0 Z"/><path d="M10,-1.3 L32,-0.5 L32,0.5 L10,1.3 Z"/></g>
<rect x="96.0" y="204.0" width="408.00000000000006" height="2" opacity="0.5"/>
<g transform="translate(480.0,194.0) rotate(45) scale(0.4)"><path d="M0,-7 L0,7 L13,0 Z"/><path d="M10,-1.3 L32,-0.5 L32,0.5 L10,1.3 Z"/></g>
<g transform="translate(450.0,184.0) rotate(90) scale(0.45)"><path d="M0,-7 L0,7 L13,0 Z"/><path d="M10,-1.3 L32,-0.5 L32,0.5 L10,1.3 Z"/></g>
<g transform="translate(436.0,192.0) rotate(0) scale(0.55)"><path d="M0,-7 L0,7 L13,0 Z"/><path d="M10,-1.3 L32,-0.5 L32,0.5 L10,1.3 Z"/></g>
<g transform="translate(414.0,184.0) rotate(90) scale(0.45)"><path d="M0,-7 L0,7 L13,0 Z"/><path d="M10,-1.3 L32,-0.5 L32,0.5 L10,1.3 Z"/></g>
<g transform="translate(384.0,192.0) rotate(0) scale(0.55)"><path d="M0,-7 L0,7 L13,0 Z"/><path d="M10,-1.3 L32,-0.5 L32,0.5 L10,1.3 Z"/></g>
<g transform="translate(354.0,194.0) rotate(45) scale(0.4)"><path d="M0,-7 L0,7 L13,0 Z"/><path d="M10,-1.3 L32,-0.5 L32,0.5 L10,1.3 Z"/></g>
<g transform="translate(332.0,192.0) rotate(0) scale(0.55)"><path d="M0,-7 L0,7 L13,0 Z"/><path d="M10,-1.3 L32,-0.5 L32,0.5 L10,1.3 Z"/></g>
<g transform="translate(302.0,192.0) rotate(0) scale(0.55)"><path d="M0,-7 L0,7 L13,0 Z"/><path d="M10,-1.3 L32,-0.5 L32,0.5 L10,1.3 Z"/></g>
<g transform="translate(288.0,192.0) rotate(0) scale(0.55)"><path d="M0,-7 L0,7 L13,0 Z"/><path d="M10,-1.3 L32,-0.5 L32,0.5 L10,1.3 Z"/></g>
<g transform="translate(270.0,184.0) rotate(90) scale(0.45)"><path d="M0,-7 L0,7 L13,0 Z"/><path d="M10,-1.3 L32,-0.5 L32,0.5 L10,1.3 Z"/></g>
<g transform="translate(252.0,184.0) rotate(90) scale(0.45)"><path d="M0,-7 L0,7 L13,0 Z"/><path d="M10,-1.3 L32,-0.5 L32,0.5 L10,1.3 Z"/></g>
<g transform="translate(222.0,192.0) rotate(0) scale(0.55)"><path d="M0,-7 L0,7 L13,0 Z"/><path d="M10,-1.3 L32,-0.5 L32,0.5 L10,1.3 Z"/></g>
<g transform="translate(192.0,192.0) rotate(0) scale(0.55)"><path d="M0,-7 L0,7 L13,0 Z"/><path d="M10,-1.3 L32,-0.5 L32,0.5 L10,1.3 Z"/></g>
<g transform="translate(162.0,192.0) rotate(0) scale(0.55)"><path d="M0,-7 L0,7 L13,0 Z"/><path d="M10,-1.3 L32,-0.5 L32,0.5 L10,1.3 Z"/></g>
<g transform="translate(140.0,194.0) rotate(45) scale(0.4)"><path d="M0,-7 L0,7 L13,0 Z"/><path d="M10,-1.3 L32,-0.5 L32,0.5 L10,1.3 Z"/></g>
<rect x="96.0" y="241.0" width="408.00000000000006" height="2" opacity="0.5"/>
<g transform="translate(480.0,231.0) rotate(45) scale(0.4)"><path d="M0,-7 L0,7 L13,0 Z"/><path d="M10,-1.3 L32,-0.5 L32,0.5 L10,1.3 Z"/></g>
<g transform="translate(458.0,221.0) rotate(90) scale(0.45)"><path d="M0,-7 L0,7 L13,0 Z"/><path d="M10,-1.3 L32,-0.5 L32,0.5 L10,1.3 Z"/></g>
<g transform="translate(436.0,221.0) rotate(90) scale(0.45)"><path d="M0,-7 L0,7 L13,0 Z"/><path d="M10,-1.3 L32,-0.5 L32,0.5 L10,1.3 Z"/></g>
<g transform="translate(406.0,231.0) rotate(45) scale(0.4)"><path d="M0,-7 L0,7 L13,0 Z"/><path d="M10,-1.3 L32,-0.5 L32,0.5 L10,1.3 Z"/></g>
<g transform="translate(388.0,229.0) rotate(0) scale(0.55)"><path d="M0,-7 L0,7 L13,0 Z"/><path d="M10,-1.3 L32,-0.5 L32,0.5 L10,1.3 Z"/></g>
<g transform="translate(370.0,229.0) rotate(0) scale(0.55)"><path d="M0,-7 L0,7 L13,0 Z"/><path d="M10,-1.3 L32,-0.5 L32,0.5 L10,1.3 Z"/></g>
<g transform="translate(352.0,229.0) rotate(0) scale(0.55)"><path d="M0,-7 L0,7 L13,0 Z"/><path d="M10,-1.3 L32,-0.5 L32,0.5 L10,1.3 Z"/></g>
<g transform="translate(334.0,229.0) rotate(0) scale(0.55)"><path d="M0,-7 L0,7 L13,0 Z"/><path d="M10,-1.3 L32,-0.5 L32,0.5 L10,1.3 Z"/></g>
<g transform="translate(320.0,229.0) rotate(0) scale(0.55)"><path d="M0,-7 L0,7 L13,0 Z"/><path d="M10,-1.3 L32,-0.5 L32,0.5 L10,1.3 Z"/></g>
<g transform="translate(298.0,221.0) rotate(90) scale(0.45)"><path d="M0,-7 L0,7 L13,0 Z"/><path d="M10,-1.3 L32,-0.5 L32,0.5 L10,1.3 Z"/></g>
<g transform="translate(276.0,231.0) rotate(45) scale(0.4)"><path d="M0,-7 L0,7 L13,0 Z"/><path d="M10,-1.3 L32,-0.5 L32,0.5 L10,1.3 Z"/></g>
<g transform="translate(262.0,229.0) rotate(0) scale(0.55)"><path d="M0,-7 L0,7 L13,0 Z"/><path d="M10,-1.3 L32,-0.5 L32,0.5 L10,1.3 Z"/></g>
<g transform="translate(232.0,229.0) rotate(0) scale(0.55)"><path d="M0,-7 L0,7 L13,0 Z"/><path d="M10,-1.3 L32,-0.5 L32,0.5 L10,1.3 Z"/></g>
<g transform="translate(202.0,229.0) rotate(0) scale(0.55)"><path d="M0,-7 L0,7 L13,0 Z"/><path d="M10,-1.3 L32,-0.5 L32,0.5 L10,1.3 Z"/></g>
<g transform="translate(172.0,229.0) rotate(0) scale(0.55)"><path d="M0,-7 L0,7 L13,0 Z"/><path d="M10,-1.3 L32,-0.5 L32,0.5 L10,1.3 Z"/></g>
<g transform="translate(158.0,231.0) rotate(45) scale(0.4)"><path d="M0,-7 L0,7 L13,0 Z"/><path d="M10,-1.3 L32,-0.5 L32,0.5 L10,1.3 Z"/></g>
<g transform="translate(128.0,229.0) rotate(0) scale(0.55)"><path d="M0,-7 L0,7 L13,0 Z"/><path d="M10,-1.3 L32,-0.5 L32,0.5 L10,1.3 Z"/></g>
<rect x="96.0" y="278.0" width="408.00000000000006" height="2" opacity="0.5"/>
<g transform="translate(480.0,258.0) rotate(90) scale(0.45)"><path d="M0,-7 L0,7 L13,0 Z"/><path d="M10,-1.3 L32,-0.5 L32,0.5 L10,1.3 Z"/></g>
<g transform="translate(466.0,266.0) rotate(0) scale(0.55)"><path d="M0,-7 L0,7 L13,0 Z"/><path d="M10,-1.3 L32,-0.5 L32,0.5 L10,1.3 Z"/></g>
<g transform="translate(448.0,266.0) rotate(0) scale(0.55)"><path d="M0,-7 L0,7 L13,0 Z"/><path d="M10,-1.3 L32,-0.5 L32,0.5 L10,1.3 Z"/></g>
<g transform="translate(426.0,258.0) rotate(90) scale(0.45)"><path d="M0,-7 L0,7 L13,0 Z"/><path d="M10,-1.3 L32,-0.5 L32,0.5 L10,1.3 Z"/></g>
<g transform="translate(412.0,268.0) rotate(45) scale(0.4)"><path d="M0,-7 L0,7 L13,0 Z"/><path d="M10,-1.3 L32,-0.5 L32,0.5 L10,1.3 Z"/></g>
<g transform="translate(382.0,266.0) rotate(0) scale(0.55)"><path d="M0,-7 L0,7 L13,0 Z"/><path d="M10,-1.3 L32,-0.5 L32,0.5 L10,1.3 Z"/></g>
<g transform="translate(360.0,268.0) rotate(45) scale(0.4)"><path d="M0,-7 L0,7 L13,0 Z"/><path d="M10,-1.3 L32,-0.5 L32,0.5 L10,1.3 Z"/></g>
<g transform="translate(338.0,266.0) rotate(0) scale(0.55)"><path d="M0,-7 L0,7 L13,0 Z"/><path d="M10,-1.3 L32,-0.5 L32,0.5 L10,1.3 Z"/></g>
<g transform="translate(324.0,268.0) rotate(45) scale(0.4)"><path d="M0,-7 L0,7 L13,0 Z"/><path d="M10,-1.3 L32,-0.5 L32,0.5 L10,1.3 Z"/></g>
<g transform="translate(294.0,266.0) rotate(0) scale(0.55)"><path d="M0,-7 L0,7 L13,0 Z"/><path d="M10,-1.3 L32,-0.5 L32,0.5 L10,1.3 Z"/></g>
<g transform="translate(272.0,266.0) rotate(0) scale(0.55)"><path d="M0,-7 L0,7 L13,0 Z"/><path d="M10,-1.3 L32,-0.5 L32,0.5 L10,1.3 Z"/></g>
<g transform="translate(258.0,258.0) rotate(90) scale(0.45)"><path d="M0,-7 L0,7 L13,0 Z"/><path d="M10,-1.3 L32,-0.5 L32,0.5 L10,1.3 Z"/></g>
<g transform="translate(236.0,266.0) rotate(0) scale(0.55)"><path d="M0,-7 L0,7 L13,0 Z"/><path d="M10,-1.3 L32,-0.5 L32,0.5 L10,1.3 Z"/></g>
<g transform="translate(218.0,266.0) rotate(0) scale(0.55)"><path d="M0,-7 L0,7 L13,0 Z"/><path d="M10,-1.3 L32,-0.5 L32,0.5 L10,1.3 Z"/></g>
<g transform="translate(200.0,268.0) rotate(45) scale(0.4)"><path d="M0,-7 L0,7 L13,0 Z"/><path d="M10,-1.3 L32,-0.5 L32,0.5 L10,1.3 Z"/></g>
<g transform="translate(178.0,266.0) rotate(0) scale(0.55)"><path d="M0,-7 L0,7 L13,0 Z"/><path d="M10,-1.3 L32,-0.5 L32,0.5 L10,1.3 Z"/></g>
<g transform="translate(164.0,258.0) rotate(90) scale(0.45)"><path d="M0,-7 L0,7 L13,0 Z"/><path d="M10,-1.3 L32,-0.5 L32,0.5 L10,1.3 Z"/></g>
<g transform="translate(142.0,268.0) rotate(45) scale(0.4)"><path d="M0,-7 L0,7 L13,0 Z"/><path d="M10,-1.3 L32,-0.5 L32,0.5 L10,1.3 Z"/></g>
<g transform="translate(128.0,258.0) rotate(90) scale(0.45)"><path d="M0,-7 L0,7 L13,0 Z"/><path d="M10,-1.3 L32,-0.5 L32,0.5 L10,1.3 Z"/></g>
<rect x="96.0" y="315.0" width="408.00000000000006" height="2" opacity="0.5"/>
<g transform="translate(480.0,303.0) rotate(0) scale(0.55)"><path d="M0,-7 L0,7 L13,0 Z"/><path d="M10,-1.3 L32,-0.5 L32,0.5 L10,1.3 Z"/></g>
<g transform="translate(462.0,303.0) rotate(0) scale(0.55)"><path d="M0,-7 L0,7 L13,0 Z"/><path d="M10,-1.3 L32,-0.5 L32,0.5 L10,1.3 Z"/></g>
<g transform="translate(444.0,303.0) rotate(0) scale(0.55)"><path d="M0,-7 L0,7 L13,0 Z"/><path d="M10,-1.3 L32,-0.5 L32,0.5 L10,1.3 Z"/></g>
<g transform="translate(422.0,295.0) rotate(90) scale(0.45)"><path d="M0,-7 L0,7 L13,0 Z"/><path d="M10,-1.3 L32,-0.5 L32,0.5 L10,1.3 Z"/></g>
<g transform="translate(404.0,305.0) rotate(45) scale(0.4)"><path d="M0,-7 L0,7 L13,0 Z"/><path d="M10,-1.3 L32,-0.5 L32,0.5 L10,1.3 Z"/></g>
<g transform="translate(374.0,295.0) rotate(90) scale(0.45)"><path d="M0,-7 L0,7 L13,0 Z"/><path d="M10,-1.3 L32,-0.5 L32,0.5 L10,1.3 Z"/></g>
<g transform="translate(356.0,303.0) rotate(0) scale(0.55)"><path d="M0,-7 L0,7 L13,0 Z"/><path d="M10,-1.3 L32,-0.5 L32,0.5 L10,1.3 Z"/></g>
<g transform="translate(326.0,303.0) rotate(0) scale(0.55)"><path d="M0,-7 L0,7 L13,0 Z"/><path d="M10,-1.3 L32,-0.5 L32,0.5 L10,1.3 Z"/></g>
<g transform="translate(312.0,305.0) rotate(45) scale(0.4)"><path d="M0,-7 L0,7 L13,0 Z"/><path d="M10,-1.3 L32,-0.5 L32,0.5 L10,1.3 Z"/></g>
<g transform="translate(290.0,303.0) rotate(0) scale(0.55)"><path d="M0,-7 L0,7 L13,0 Z"/><path d="M10,-1.3 L32,-0.5 L32,0.5 L10,1.3 Z"/></g>
<g transform="translate(272.0,295.0) rotate(90) scale(0.45)"><path d="M0,-7 L0,7 L13,0 Z"/><path d="M10,-1.3 L32,-0.5 L32,0.5 L10,1.3 Z"/></g>
<g transform="translate(250.0,303.0) rotate(0) scale(0.55)"><path d="M0,-7 L0,7 L13,0 Z"/><path d="M10,-1.3 L32,-0.5 L32,0.5 L10,1.3 Z"/></g>
<g transform="translate(228.0,305.0) rotate(45) scale(0.4)"><path d="M0,-7 L0,7 L13,0 Z"/><path d="M10,-1.3 L32,-0.5 L32,0.5 L10,1.3 Z"/></g>
<g transform="translate(206.0,303.0) rotate(0) scale(0.55)"><path d="M0,-7 L0,7 L13,0 Z"/><path d="M10,-1.3 L32,-0.5 L32,0.5 L10,1.3 Z"/></g>
<g transform="translate(192.0,303.0) rotate(0) scale(0.55)"><path d="M0,-7 L0,7 L13,0 Z"/><path d="M10,-1.3 L32,-0.5 L32,0.5 L10,1.3 Z"/></g>
<g transform="translate(174.0,303.0) rotate(0) scale(0.55)"><path d="M0,-7 L0,7 L13,0 Z"/><path d="M10,-1.3 L32,-0.5 L32,0.5 L10,1.3 Z"/></g>
<g transform="translate(144.0,295.0) rotate(90) scale(0.45)"><path d="M0,-7 L0,7 L13,0 Z"/><path d="M10,-1.3 L32,-0.5 L32,0.5 L10,1.3 Z"/></g>
<g transform="translate(130.0,303.0) rotate(0) scale(0.55)"><path d="M0,-7 L0,7 L13,0 Z"/><path d="M10,-1.3 L32,-0.5 L32,0.5 L10,1.3 Z"/></g>
<rect x="96.0" y="352.0" width="408.00000000000006" height="2" opacity="0.5"/>
<g transform="translate(480.0,332.0) rotate(90) scale(0.45)"><path d="M0,-7 L0,7 L13,0 Z"/><path d="M10,-1.3 L32,-0.5 L32,0.5 L10,1.3 Z"/></g>
<g transform="translate(466.0,342.0) rotate(45) scale(0.4)"><path d="M0,-7 L0,7 L13,0 Z"/><path d="M10,-1.3 L32,-0.5 L32,0.5 L10,1.3 Z"/></g>
<g transform="translate(452.0,342.0) rotate(45) scale(0.4)"><path d="M0,-7 L0,7 L13,0 Z"/><path d="M10,-1.3 L32,-0.5 L32,0.5 L10,1.3 Z"/></g>
<g transform="translate(434.0,340.0) rotate(0) scale(0.55)"><path d="M0,-7 L0,7 L13,0 Z"/><path d="M10,-1.3 L32,-0.5 L32,0.5 L10,1.3 Z"/></g>
<g transform="translate(416.0,340.0) rotate(0) scale(0.55)"><path d="M0,-7 L0,7 L13,0 Z"/><path d="M10,-1.3 L32,-0.5 L32,0.5 L10,1.3 Z"/></g>
<g transform="translate(394.0,340.0) rotate(0) scale(0.55)"><path d="M0,-7 L0,7 L13,0 Z"/><path d="M10,-1.3 L32,-0.5 L32,0.5 L10,1.3 Z"/></g>
<g transform="translate(364.0,340.0) rotate(0) scale(0.55)"><path d="M0,-7 L0,7 L13,0 Z"/><path d="M10,-1.3 L32,-0.5 L32,0.5 L10,1.3 Z"/></g>
<g transform="translate(350.0,332.0) rotate(90) scale(0.45)"><path d="M0,-7 L0,7 L13,0 Z"/><path d="M10,-1.3 L32,-0.5 L32,0.5 L10,1.3 Z"/></g>
<g transform="translate(332.0,342.0) rotate(45) scale(0.4)"><path d="M0,-7 L0,7 L13,0 Z"/><path d="M10,-1.3 L32,-0.5 L32,0.5 L10,1.3 Z"/></g>
<g transform="translate(318.0,340.0) rotate(0) scale(0.55)"><path d="M0,-7 L0,7 L13,0 Z"/><path d="M10,-1.3 L32,-0.5 L32,0.5 L10,1.3 Z"/></g>
<g transform="translate(288.0,342.0) rotate(45) scale(0.4)"><path d="M0,-7 L0,7 L13,0 Z"/><path d="M10,-1.3 L32,-0.5 L32,0.5 L10,1.3 Z"/></g>
<g transform="translate(270.0,332.0) rotate(90) scale(0.45)"><path d="M0,-7 L0,7 L13,0 Z"/><path d="M10,-1.3 L32,-0.5 L32,0.5 L10,1.3 Z"/></g>
<g transform="translate(240.0,332.0) rotate(90) scale(0.45)"><path d="M0,-7 L0,7 L13,0 Z"/><path d="M10,-1.3 L32,-0.5 L32,0.5 L10,1.3 Z"/></g>
<g transform="translate(218.0,340.0) rotate(0) scale(0.55)"><path d="M0,-7 L0,7 L13,0 Z"/><path d="M10,-1.3 L32,-0.5 L32,0.5 L10,1.3 Z"/></g>
<g transform="translate(200.0,340.0) rotate(0) scale(0.55)"><path d="M0,-7 L0,7 L13,0 Z"/><path d="M10,-1.3 L32,-0.5 L32,0.5 L10,1.3 Z"/></g>
<g transform="translate(186.0,340.0) rotate(0) scale(0.55)"><path d="M0,-7 L0,7 L13,0 Z"/><path d="M10,-1.3 L32,-0.5 L32,0.5 L10,1.3 Z"/></g>
<g transform="translate(168.0,340.0) rotate(0) scale(0.55)"><path d="M0,-7 L0,7 L13,0 Z"/><path d="M10,-1.3 L32,-0.5 L32,0.5 L10,1.3 Z"/></g>
<g transform="translate(150.0,342.0) rotate(45) scale(0.4)"><path d="M0,-7 L0,7 L13,0 Z"/><path d="M10,-1.3 L32,-0.5 L32,0.5 L10,1.3 Z"/></g>
<g transform="translate(132.0,340.0) rotate(0) scale(0.55)"><path d="M0,-7 L0,7 L13,0 Z"/><path d="M10,-1.3 L32,-0.5 L32,0.5 L10,1.3 Z"/></g>
<rect x="96.0" y="389.0" width="408.00000000000006" height="2" opacity="0.5"/>
<g transform="translate(480.0,377.0) rotate(0) scale(0.55)"><path d="M0,-7 L0,7 L13,0 Z"/><path d="M10,-1.3 L32,-0.5 L32,0.5 L10,1.3 Z"/></g>
<g transform="translate(462.0,369.0) rotate(90) scale(0.45)"><path d="M0,-7 L0,7 L13,0 Z"/><path d="M10,-1.3 L32,-0.5 L32,0.5 L10,1.3 Z"/></g>
<g transform="translate(440.0,377.0) rotate(0) scale(0.55)"><path d="M0,-7 L0,7 L13,0 Z"/><path d="M10,-1.3 L32,-0.5 L32,0.5 L10,1.3 Z"/></g>
<g transform="translate(410.0,379.0) rotate(45) scale(0.4)"><path d="M0,-7 L0,7 L13,0 Z"/><path d="M10,-1.3 L32,-0.5 L32,0.5 L10,1.3 Z"/></g>
<g transform="translate(396.0,379.0) rotate(45) scale(0.4)"><path d="M0,-7 L0,7 L13,0 Z"/><path d="M10,-1.3 L32,-0.5 L32,0.5 L10,1.3 Z"/></g>
<g transform="translate(374.0,379.0) rotate(45) scale(0.4)"><path d="M0,-7 L0,7 L13,0 Z"/><path d="M10,-1.3 L32,-0.5 L32,0.5 L10,1.3 Z"/></g>
<g transform="translate(344.0,379.0) rotate(45) scale(0.4)"><path d="M0,-7 L0,7 L13,0 Z"/><path d="M10,-1.3 L32,-0.5 L32,0.5 L10,1.3 Z"/></g>
<g transform="translate(326.0,377.0) rotate(0) scale(0.55)"><path d="M0,-7 L0,7 L13,0 Z"/><path d="M10,-1.3 L32,-0.5 L32,0.5 L10,1.3 Z"/></g>
<g transform="translate(312.0,379.0) rotate(45) scale(0.4)"><path d="M0,-7 L0,7 L13,0 Z"/><path d="M10,-1.3 L32,-0.5 L32,0.5 L10,1.3 Z"/></g>
<g transform="translate(294.0,369.0) rotate(90) scale(0.45)"><path d="M0,-7 L0,7 L13,0 Z"/><path d="M10,-1.3 L32,-0.5 L32,0.5 L10,1.3 Z"/></g>
<g transform="translate(276.0,377.0) rotate(0) scale(0.55)"><path d="M0,-7 L0,7 L13,0 Z"/><path d="M10,-1.3 L32,-0.5 L32,0.5 L10,1.3 Z"/></g>
<g transform="translate(246.0,369.0) rotate(90) scale(0.45)"><path d="M0,-7 L0,7 L13,0 Z"/><path d="M10,-1.3 L32,-0.5 L32,0.5 L10,1.3 Z"/></g>
<g transform="translate(232.0,369.0) rotate(90) scale(0.45)"><path d="M0,-7 L0,7 L13,0 Z"/><path d="M10,-1.3 L32,-0.5 L32,0.5 L10,1.3 Z"/></g>
<g transform="translate(210.0,369.0) rotate(90) scale(0.45)"><path d="M0,-7 L0,7 L13,0 Z"/><path d="M10,-1.3 L32,-0.5 L32,0.5 L10,1.3 Z"/></g>
<g transform="translate(180.0,369.0) rotate(90) scale(0.45)"><path d="M0,-7 L0,7 L13,0 Z"/><path d="M10,-1.3 L32,-0.5 L32,0.5 L10,1.3 Z"/></g>
<g transform="translate(166.0,379.0) rotate(45) scale(0.4)"><path d="M0,-7 L0,7 L13,0 Z"/><path d="M10,-1.3 L32,-0.5 L32,0.5 L10,1.3 Z"/></g>
<g transform="translate(152.0,377.0) rotate(0) scale(0.55)"><path d="M0,-7 L0,7 L13,0 Z"/><path d="M10,-1.3 L32,-0.5 L32,0.5 L10,1.3 Z"/></g>
<g transform="translate(130.0,377.0) rotate(0) scale(0.55)"><path d="M0,-7 L0,7 L13,0 Z"/><path d="M10,-1.3 L32,-0.5 L32,0.5 L10,1.3 Z"/></g>
<rect x="96.0" y="426.0" width="408.00000000000006" height="2" opacity="0.5"/>
<g transform="translate(480.0,414.0) rotate(0) scale(0.55)"><path d="M0,-7 L0,7 L13,0 Z"/><path d="M10,-1.3 L32,-0.5 L32,0.5 L10,1.3 Z"/></g>
<g transform="translate(466.0,406.0) rotate(90) scale(0.45)"><path d="M0,-7 L0,7 L13,0 Z"/><path d="M10,-1.3 L32,-0.5 L32,0.5 L10,1.3 Z"/></g>
<g transform="translate(452.0,414.0) rotate(0) scale(0.55)"><path d="M0,-7 L0,7 L13,0 Z"/><path d="M10,-1.3 L32,-0.5 L32,0.5 L10,1.3 Z"/></g>
<g transform="translate(434.0,406.0) rotate(90) scale(0.45)"><path d="M0,-7 L0,7 L13,0 Z"/><path d="M10,-1.3 L32,-0.5 L32,0.5 L10,1.3 Z"/></g>
<g transform="translate(404.0,414.0) rotate(0) scale(0.55)"><path d="M0,-7 L0,7 L13,0 Z"/><path d="M10,-1.3 L32,-0.5 L32,0.5 L10,1.3 Z"/></g>
<g transform="translate(374.0,414.0) rotate(0) scale(0.55)"><path d="M0,-7 L0,7 L13,0 Z"/><path d="M10,-1.3 L32,-0.5 L32,0.5 L10,1.3 Z"/></g>
<g transform="translate(356.0,406.0) rotate(90) scale(0.45)"><path d="M0,-7 L0,7 L13,0 Z"/><path d="M10,-1.3 L32,-0.5 L32,0.5 L10,1.3 Z"/></g>
<g transform="translate(334.0,416.0) rotate(45) scale(0.4)"><path d="M0,-7 L0,7 L13,0 Z"/><path d="M10,-1.3 L32,-0.5 L32,0.5 L10,1.3 Z"/></g>
<g transform="translate(316.0,416.0) rotate(45) scale(0.4)"><path d="M0,-7 L0,7 L13,0 Z"/><path d="M10,-1.3 L32,-0.5 L32,0.5 L10,1.3 Z"/></g>
<g transform="translate(298.0,414.0) rotate(0) scale(0.55)"><path d="M0,-7 L0,7 L13,0 Z"/><path d="M10,-1.3 L32,-0.5 L32,0.5 L10,1.3 Z"/></g>
<g transform="translate(268.0,414.0) rotate(0) scale(0.55)"><path d="M0,-7 L0,7 L13,0 Z"/><path d="M10,-1.3 L32,-0.5 L32,0.5 L10,1.3 Z"/></g>
<g transform="translate(254.0,406.0) rotate(90) scale(0.45)"><path d="M0,-7 L0,7 L13,0 Z"/><path d="M10,-1.3 L32,-0.5 L32,0.5 L10,1.3 Z"/></g>
<g transform="translate(224.0,414.0) rotate(0) scale(0.55)"><path d="M0,-7 L0,7 L13,0 Z"/><path d="M10,-1.3 L32,-0.5 L32,0.5 L10,1.3 Z"/></g>
<g transform="translate(202.0,406.0) rotate(90) scale(0.45)"><path d="M0,-7 L0,7 L13,0 Z"/><path d="M10,-1.3 L32,-0.5 L32,0.5 L10,1.3 Z"/></g>
<g transform="translate(184.0,416.0) rotate(45) scale(0.4)"><path d="M0,-7 L0,7 L13,0 Z"/><path d="M10,-1.3 L32,-0.5 L32,0.5 L10,1.3 Z"/></g>
<g transform="translate(162.0,414.0) rotate(0) scale(0.55)"><path d="M0,-7 L0,7 L13,0 Z"/><path d="M10,-1.3 L32,-0.5 L32,0.5 L10,1.3 Z"/></g>
<g transform="translate(144.0,416.0) rotate(45) scale(0.4)"><path d="M0,-7 L0,7 L13,0 Z"/><path d="M10,-1.3 L32,-0.5 L32,0.5 L10,1.3 Z"/></g>
<g transform="translate(126.0,406.0) rotate(90) scale(0.45)"><path d="M0,-7 L0,7 L13,0 Z"/><path d="M10,-1.3 L32,-0.5 L32,0.5 L10,1.3 Z"/></g>
<rect x="96.0" y="463.0" width="408.00000000000006" height="2" opacity="0.5"/>
<g transform="translate(480.0,451.0) rotate(0) scale(0.55)"><path d="M0,-7 L0,7 L13,0 Z"/><path d="M10,-1.3 L32,-0.5 L32,0.5 L10,1.3 Z"/></g>
<g transform="translate(450.0,451.0) rotate(0) scale(0.55)"><path d="M0,-7 L0,7 L13,0 Z"/><path d="M10,-1.3 L32,-0.5 L32,0.5 L10,1.3 Z"/></g>
<g transform="translate(432.0,451.0) rotate(0) scale(0.55)"><path d="M0,-7 L0,7 L13,0 Z"/><path d="M10,-1.3 L32,-0.5 L32,0.5 L10,1.3 Z"/></g>
<g transform="translate(402.0,453.0) rotate(45) scale(0.4)"><path d="M0,-7 L0,7 L13,0 Z"/><path d="M10,-1.3 L32,-0.5 L32,0.5 L10,1.3 Z"/></g>
<g transform="translate(372.0,451.0) rotate(0) scale(0.55)"><path d="M0,-7 L0,7 L13,0 Z"/><path d="M10,-1.3 L32,-0.5 L32,0.5 L10,1.3 Z"/></g>
<g transform="translate(354.0,451.0) rotate(0) scale(0.55)"><path d="M0,-7 L0,7 L13,0 Z"/><path d="M10,-1.3 L32,-0.5 L32,0.5 L10,1.3 Z"/></g>
<g transform="translate(340.0,443.0) rotate(90) scale(0.45)"><path d="M0,-7 L0,7 L13,0 Z"/><path d="M10,-1.3 L32,-0.5 L32,0.5 L10,1.3 Z"/></g>
<g transform="translate(326.0,451.0) rotate(0) scale(0.55)"><path d="M0,-7 L0,7 L13,0 Z"/><path d="M10,-1.3 L32,-0.5 L32,0.5 L10,1.3 Z"/></g>
<g transform="translate(296.0,451.0) rotate(0) scale(0.55)"><path d="M0,-7 L0,7 L13,0 Z"/><path d="M10,-1.3 L32,-0.5 L32,0.5 L10,1.3 Z"/></g>
<g transform="translate(282.0,451.0) rotate(0) scale(0.55)"><path d="M0,-7 L0,7 L13,0 Z"/><path d="M10,-1.3 L32,-0.5 L32,0.5 L10,1.3 Z"/></g>
<g transform="translate(260.0,451.0) rotate(0) scale(0.55)"><path d="M0,-7 L0,7 L13,0 Z"/><path d="M10,-1.3 L32,-0.5 L32,0.5 L10,1.3 Z"/></g>
<g transform="translate(246.0,451.0) rotate(0) scale(0.55)"><path d="M0,-7 L0,7 L13,0 Z"/><path d="M10,-1.3 L32,-0.5 L32,0.5 L10,1.3 Z"/></g>
<g transform="translate(228.0,453.0) rotate(45) scale(0.4)"><path d="M0,-7 L0,7 L13,0 Z"/><path d="M10,-1.3 L32,-0.5 L32,0.5 L10,1.3 Z"/></g>
<g transform="translate(214.0,451.0) rotate(0) scale(0.55)"><path d="M0,-7 L0,7 L13,0 Z"/><path d="M10,-1.3 L32,-0.5 L32,0.5 L10,1.3 Z"/></g>
<g transform="translate(192.0,451.0) rotate(0) scale(0.55)"><path d="M0,-7 L0,7 L13,0 Z"/><path d="M10,-1.3 L32,-0.5 L32,0.5 L10,1.3 Z"/></g>
<g transform="translate(174.0,451.0) rotate(0) scale(0.55)"><path d="M0,-7 L0,7 L13,0 Z"/><path d="M10,-1.3 L32,-0.5 L32,0.5 L10,1.3 Z"/></g>
<g transform="translate(156.0,453.0) rotate(45) scale(0.4)"><path d="M0,-7 L0,7 L13,0 Z"/><path d="M10,-1.3 L32,-0.5 L32,0.5 L10,1.3 Z"/></g>
<g transform="translate(134.0,451.0) rotate(0) scale(0.55)"><path d="M0,-7 L0,7 L13,0 Z"/><path d="M10,-1.3 L32,-0.5 L32,0.5 L10,1.3 Z"/></g>
<rect x="96.0" y="500.0" width="408.00000000000006" height="2" opacity="0.5"/>
<g transform="translate(480.0,480.0) rotate(90) scale(0.45)"><path d="M0,-7 L0,7 L13,0 Z"/><path d="M10,-1.3 L32,-0.5 L32,0.5 L10,1.3 Z"/></g>
<g transform="translate(466.0,488.0) rotate(0) scale(0.55)"><path d="M0,-7 L0,7 L13,0 Z"/><path d="M10,-1.3 L32,-0.5 L32,0.5 L10,1.3 Z"/></g>
<g transform="translate(448.0,488.0) rotate(0) scale(0.55)"><path d="M0,-7 L0,7 L13,0 Z"/><path d="M10,-1.3 L32,-0.5 L32,0.5 L10,1.3 Z"/></g>
<g transform="translate(434.0,488.0) rotate(0) scale(0.55)"><path d="M0,-7 L0,7 L13,0 Z"/><path d="M10,-1.3 L32,-0.5 L32,0.5 L10,1.3 Z"/></g>
<g transform="translate(420.0,480.0) rotate(90) scale(0.45)"><path d="M0,-7 L0,7 L13,0 Z"/><path d="M10,-1.3 L32,-0.5 L32,0.5 L10,1.3 Z"/></g>
<g transform="translate(398.0,488.0) rotate(0) scale(0.55)"><path d="M0,-7 L0,7 L13,0 Z"/><path d="M10,-1.3 L32,-0.5 L32,0.5 L10,1.3 Z"/></g>
<g transform="translate(380.0,488.0) rotate(0) scale(0.55)"><path d="M0,-7 L0,7 L13,0 Z"/><path d="M10,-1.3 L32,-0.5 L32,0.5 L10,1.3 Z"/></g>
<g transform="translate(366.0,488.0) rotate(0) scale(0.55)"><path d="M0,-7 L0,7 L13,0 Z"/><path d="M10,-1.3 L32,-0.5 L32,0.5 L10,1.3 Z"/></g>
<g transform="translate(344.0,490.0) rotate(45) scale(0.4)"><path d="M0,-7 L0,7 L13,0 Z"/><path d="M10,-1.3 L32,-0.5 L32,0.5 L10,1.3 Z"/></g>
<g transform="translate(314.0,490.0) rotate(45) scale(0.4)"><path d="M0,-7 L0,7 L13,0 Z"/><path d="M10,-1.3 L32,-0.5 L32,0.5 L10,1.3 Z"/></g>
<g transform="translate(292.0,480.0) rotate(90) scale(0.45)"><path d="M0,-7 L0,7 L13,0 Z"/><path d="M10,-1.3 L32,-0.5 L32,0.5 L10,1.3 Z"/></g>
<g transform="translate(278.0,488.0) rotate(0) scale(0.55)"><path d="M0,-7 L0,7 L13,0 Z"/><path d="M10,-1.3 L32,-0.5 L32,0.5 L10,1.3 Z"/></g>
<g transform="translate(260.0,490.0) rotate(45) scale(0.4)"><path d="M0,-7 L0,7 L13,0 Z"/><path d="M10,-1.3 L32,-0.5 L32,0.5 L10,1.3 Z"/></g>
<g transform="translate(242.0,488.0) rotate(0) scale(0.55)"><path d="M0,-7 L0,7 L13,0 Z"/><path d="M10,-1.3 L32,-0.5 L32,0.5 L10,1.3 Z"/></g>
<g transform="translate(224.0,488.0) rotate(0) scale(0.55)"><path d="M0,-7 L0,7 L13,0 Z"/><path d="M10,-1.3 L32,-0.5 L32,0.5 L10,1.3 Z"/></g>
<g transform="translate(202.0,480.0) rotate(90) scale(0.45)"><path d="M0,-7 L0,7 L13,0 Z"/><path d="M10,-1.3 L32,-0.5 L32,0.5 L10,1.3 Z"/></g>
<g transform="translate(184.0,488.0) rotate(0) scale(0.55)"><path d="M0,-7 L0,7 L13,0 Z"/><path d="M10,-1.3 L32,-0.5 L32,0.5 L10,1.3 Z"/></g>
<g transform="translate(166.0,488.0) rotate(0) scale(0.55)"><path d="M0,-7 L0,7 L13,0 Z"/><path d="M10,-1.3 L32,-0.5 L32,0.5 L10,1.3 Z"/></g>
<g transform="translate(152.0,490.0) rotate(45) scale(0.4)"><path d="M0,-7 L0,7 L13,0 Z"/><path d="M10,-1.3 L32,-0.5 L32,0.5 L10,1.3 Z"/></g>
<g transform="translate(138.0,488.0) rotate(0) scale(0.55)"><path d="M0,-7 L0,7 L13,0 Z"/><path d="M10,-1.3 L32,-0.5 L32,0.5 L10,1.3 Z"/></g>
<rect x="96.0" y="537.0" width="408.00000000000006" height="2" opacity="0.5"/>
<g transform="translate(480.0,525.0) rotate(0) scale(0.55)"><path d="M0,-7 L0,7 L13,0 Z"/><path d="M10,-1.3 L32,-0.5 L32,0.5 L10,1.3 Z"/></g>
<g transform="translate(462.0,527.0) rotate(45) scale(0.4)"><path d="M0,-7 L0,7 L13,0 Z"/><path d="M10,-1.3 L32,-0.5 L32,0.5 L10,1.3 Z"/></g>
<g transform="translate(448.0,517.0) rotate(90) scale(0.45)"><path d="M0,-7 L0,7 L13,0 Z"/><path d="M10,-1.3 L32,-0.5 L32,0.5 L10,1.3 Z"/></g>
<g transform="translate(418.0,517.0) rotate(90) scale(0.45)"><path d="M0,-7 L0,7 L13,0 Z"/><path d="M10,-1.3 L32,-0.5 L32,0.5 L10,1.3 Z"/></g>
<g transform="translate(388.0,527.0) rotate(45) scale(0.4)"><path d="M0,-7 L0,7 L13,0 Z"/><path d="M10,-1.3 L32,-0.5 L32,0.5 L10,1.3 Z"/></g>
<g transform="translate(366.0,517.0) rotate(90) scale(0.45)"><path d="M0,-7 L0,7 L13,0 Z"/><path d="M10,-1.3 L32,-0.5 L32,0.5 L10,1.3 Z"/></g>
<g transform="translate(348.0,525.0) rotate(0) scale(0.55)"><path d="M0,-7 L0,7 L13,0 Z"/><path d="M10,-1.3 L32,-0.5 L32,0.5 L10,1.3 Z"/></g>
<g transform="translate(330.0,525.0) rotate(0) scale(0.55)"><path d="M0,-7 L0,7 L13,0 Z"/><path d="M10,-1.3 L32,-0.5 L32,0.5 L10,1.3 Z"/></g>
<g transform="translate(308.0,527.0) rotate(45) scale(0.4)"><path d="M0,-7 L0,7 L13,0 Z"/><path d="M10,-1.3 L32,-0.5 L32,0.5 L10,1.3 Z"/></g>
<g transform="translate(290.0,525.0) rotate(0) scale(0.55)"><path d="M0,-7 L0,7 L13,0 Z"/><path d="M10,-1.3 L32,-0.5 L32,0.5 L10,1.3 Z"/></g>
<g transform="translate(268.0,525.0) rotate(0) scale(0.55)"><path d="M0,-7 L0,7 L13,0 Z"/><path d="M10,-1.3 L32,-0.5 L32,0.5 L10,1.3 Z"/></g>
<g transform="translate(254.0,525.0) rotate(0) scale(0.55)"><path d="M0,-7 L0,7 L13,0 Z"/><path d="M10,-1.3 L32,-0.5 L32,0.5 L10,1.3 Z"/></g>
<g transform="translate(224.0,527.0) rotate(45) scale(0.4)"><path d="M0,-7 L0,7 L13,0 Z"/><path d="M10,-1.3 L32,-0.5 L32,0.5 L10,1.3 Z"/></g>
<g transform="translate(202.0,517.0) rotate(90) scale(0.45)"><path d="M0,-7 L0,7 L13,0 Z"/><path d="M10,-1.3 L32,-0.5 L32,0.5 L10,1.3 Z"/></g>
<g transform="translate(180.0,525.0) rotate(0) scale(0.55)"><path d="M0,-7 L0,7 L13,0 Z"/><path d="M10,-1.3 L32,-0.5 L32,0.5 L10,1.3 Z"/></g>
<g transform="translate(162.0,525.0) rotate(0) scale(0.55)"><path d="M0,-7 L0,7 L13,0 Z"/><path d="M10,-1.3 L32,-0.5 L32,0.5 L10,1.3 Z"/></g>
<g transform="translate(132.0,525.0) rotate(0) scale(0.55)"><path d="M0,-7 L0,7 L13,0 Z"/><path d="M10,-1.3 L32,-0.5 L32,0.5 L10,1.3 Z"/></g>
</g></svg>